<svg width="333" height="100" viewBox="0 0 333 100" fill="none" xmlns="http://www.w3.org/2000/svg">
<path d="M80.0201 78.1175L46.045 98.8587C43.5565 100.38 40.4925 100.38 38.0041 98.8587L4.02047 78.1175C1.53201 76.5957 0 73.7938 0 70.7502V29.2588C0 26.2152 1.53201 23.4133 4.02047 21.8915L37.9956 1.14135C40.4841 -0.380449 43.5481 -0.380449 46.0365 1.14135L80.0116 21.8915C82.5001 23.4133 84.0321 26.2152 84.0321 29.2588V70.7502C84.049 73.7848 82.5086 76.5957 80.0201 78.1175Z" fill="white"/>
<path d="M35.2445 53.652C35.2445 53.652 33.2554 51.5573 29.0572 51.3425C29.0572 51.3425 22.3535 52.0139 17.5205 44.7629C17.5205 44.7629 14.0248 39.5978 15.2606 34.8354C15.2606 34.8354 16.0224 36.6706 21.1262 37.897C21.1262 37.897 29.6243 39.1412 32.2058 42.9278C32.2058 42.9278 34.9059 47.0009 35.6338 50.0355C35.7015 50.0713 31.808 43.3486 21.6679 42.0595C21.6679 42.0595 27.1612 42.6593 34.1103 49.9281C34.1103 49.937 35.346 51.1545 35.2445 53.652Z" fill="url(#paint0_linear_4005_1803)"/>
<path d="M23.259 76.7747C23.259 76.7747 22.5734 65.1643 35.8283 58.0119C35.8283 58.0119 39.5949 55.4875 46.163 56.687C46.163 56.687 56.3285 60.1603 66.1808 50.6983C66.1808 50.6983 73.2737 43.9755 72.9098 36.1338C72.9098 36.1338 71.1238 38.7029 62.8205 38.7387C62.8205 38.7387 49.244 37.575 44.0216 42.4985C44.0216 42.4985 38.5114 47.8158 36.3954 52.2648C36.2854 52.2917 44.5125 43.2952 60.6283 44.996C60.6283 44.996 51.9187 43.9218 38.7823 52.6498C38.7823 52.6498 31.9517 56.1767 25.8491 63.741C25.8575 63.7499 22.2095 67.9035 23.259 76.7747Z" fill="url(#paint1_linear_4005_1803)"/>
<path d="M166.296 25.392V70H160.472V49.776H137.752V70H131.928V25.392H137.752V44.976H160.472V25.392H166.296ZM208.241 51.12C208.241 52.2293 208.177 53.4027 208.049 54.64H180.017C180.23 58.096 181.403 60.8053 183.537 62.768C185.713 64.688 188.337 65.648 191.409 65.648C193.926 65.648 196.017 65.072 197.681 63.92C199.387 62.7253 200.582 61.1467 201.265 59.184H207.537C206.598 62.5547 204.721 65.3067 201.905 67.44C199.089 69.5307 195.59 70.576 191.409 70.576C188.081 70.576 185.094 69.8293 182.449 68.336C179.846 66.8427 177.798 64.7307 176.305 62C174.811 59.2267 174.065 56.0267 174.065 52.4C174.065 48.7733 174.79 45.5947 176.241 42.864C177.691 40.1333 179.718 38.0427 182.321 36.592C184.966 35.0987 187.995 34.352 191.409 34.352C194.737 34.352 197.681 35.0773 200.241 36.528C202.801 37.9787 204.763 39.984 206.129 42.544C207.537 45.0613 208.241 47.92 208.241 51.12ZM202.225 49.904C202.225 47.6853 201.734 45.7867 200.753 44.208C199.771 42.5867 198.427 41.3707 196.721 40.56C195.057 39.7067 193.201 39.28 191.153 39.28C188.209 39.28 185.691 40.2187 183.601 42.096C181.553 43.9733 180.379 46.576 180.081 49.904H202.225ZM234.232 70L225.912 56.944L217.912 70H211.832L223.16 52.592L211.832 34.928H218.424L226.744 47.92L234.68 34.928H240.76L229.496 52.272L240.824 70H234.232ZM249.561 29.232C248.452 29.232 247.513 28.848 246.745 28.08C245.977 27.312 245.593 26.3733 245.593 25.264C245.593 24.1547 245.977 23.216 246.745 22.448C247.513 21.68 248.452 21.296 249.561 21.296C250.628 21.296 251.524 21.68 252.249 22.448C253.017 23.216 253.401 24.1547 253.401 25.264C253.401 26.3733 253.017 27.312 252.249 28.08C251.524 28.848 250.628 29.232 249.561 29.232ZM252.377 34.928V70H246.553V34.928H252.377ZM268.127 22.64V70H262.303V22.64H268.127ZM281.061 29.232C279.952 29.232 279.013 28.848 278.245 28.08C277.477 27.312 277.093 26.3733 277.093 25.264C277.093 24.1547 277.477 23.216 278.245 22.448C279.013 21.68 279.952 21.296 281.061 21.296C282.128 21.296 283.024 21.68 283.749 22.448C284.517 23.216 284.901 24.1547 284.901 25.264C284.901 26.3733 284.517 27.312 283.749 28.08C283.024 28.848 282.128 29.232 281.061 29.232ZM283.877 34.928V70H278.053V34.928H283.877ZM291.627 52.336C291.627 48.752 292.352 45.616 293.803 42.928C295.254 40.1973 297.238 38.0853 299.755 36.592C302.315 35.0987 305.152 34.352 308.267 34.352C311.339 34.352 314.006 35.0133 316.267 36.336C318.528 37.6587 320.214 39.3227 321.323 41.328V34.928H327.211V70H321.323V63.472C320.171 65.52 318.443 67.2267 316.139 68.592C313.878 69.9147 311.232 70.576 308.203 70.576C305.088 70.576 302.272 69.808 299.755 68.272C297.238 66.736 295.254 64.5813 293.803 61.808C292.352 59.0347 291.627 55.8773 291.627 52.336ZM321.323 52.4C321.323 49.7547 320.79 47.4507 319.723 45.488C318.656 43.5253 317.206 42.032 315.371 41.008C313.579 39.9413 311.595 39.408 309.419 39.408C307.243 39.408 305.259 39.92 303.467 40.944C301.675 41.968 300.246 43.4613 299.179 45.424C298.112 47.3867 297.579 49.6907 297.579 52.336C297.579 55.024 298.112 57.3707 299.179 59.376C300.246 61.3387 301.675 62.8533 303.467 63.92C305.259 64.944 307.243 65.456 309.419 65.456C311.595 65.456 313.579 64.944 315.371 63.92C317.206 62.8533 318.656 61.3387 319.723 59.376C320.79 57.3707 321.323 55.0453 321.323 52.4Z" fill="white"/>
<defs>
<linearGradient id="paint0_linear_4005_1803" x1="17.809" y1="50.9294" x2="29.4838" y2="35.0946" gradientUnits="userSpaceOnUse">
<stop offset="0.2237" stop-color="#359B07"/>
<stop offset="0.9291" stop-color="#98ED18"/>
</linearGradient>
<linearGradient id="paint1_linear_4005_1803" x1="29.8641" y1="70.8942" x2="54.1235" y2="34.0949" gradientUnits="userSpaceOnUse">
<stop offset="0.2237" stop-color="#359B07"/>
<stop offset="0.9291" stop-color="#98ED18"/>
</linearGradient>
</defs>
</svg>
