<svg width="150" height="179" viewBox="0 0 150 179" fill="none" xmlns="http://www.w3.org/2000/svg">
<path d="M142.838 139.442L82.1917 176.466C77.7497 179.182 72.2803 179.182 67.8383 176.466L7.17666 139.442C2.73469 136.725 0 131.724 0 126.291V52.2278C0 46.7949 2.73469 41.7934 7.17666 39.077L67.8232 2.03734C72.2652 -0.679113 77.7346 -0.679113 82.1765 2.03734L142.823 39.077C147.265 41.7934 150 46.7949 150 52.2278V126.291C150.03 131.708 147.28 136.725 142.838 139.442Z" fill="white"/>
<path d="M62.9125 95.7707C62.9125 95.7707 59.3619 92.0316 51.868 91.6481C51.868 91.6481 39.9018 92.8466 31.2747 79.9035C31.2747 79.9035 25.0348 70.6835 27.2407 62.1826C27.2407 62.1826 28.6005 65.4584 37.711 67.6475C37.711 67.6475 52.8802 69.8686 57.4884 76.6278C57.4884 76.6278 62.3081 83.8983 63.6075 89.3152C63.7283 89.3791 56.7783 77.3788 38.678 75.0778C38.678 75.0778 48.4836 76.1484 60.8879 89.1234C60.8879 89.1394 63.0938 91.3126 62.9125 95.7707Z" fill="url(#paint0_linear_4005_1796)"/>
<path d="M41.5183 137.045C41.5183 137.045 40.2945 116.32 63.9548 103.552C63.9548 103.552 70.6782 99.0464 82.4026 101.188C82.4026 101.188 100.548 107.387 118.135 90.4975C118.135 90.4975 130.796 78.4972 130.146 64.4995C130.146 64.4995 126.958 69.0855 112.137 69.1494C112.137 69.1494 87.9022 67.0722 78.5801 75.8607C78.5801 75.8607 68.7443 85.3523 64.9671 93.2939C64.7707 93.3418 79.4564 77.2828 108.223 80.3188C108.223 80.3188 92.6766 78.4013 69.2278 93.981C69.2278 93.981 57.035 100.277 46.1416 113.779C46.1567 113.795 39.6448 121.209 41.5183 137.045Z" fill="url(#paint1_linear_4005_1796)"/>
<defs>
<linearGradient id="paint0_linear_4005_1796" x1="31.7897" y1="90.9107" x2="52.6295" y2="62.6452" gradientUnits="userSpaceOnUse">
<stop offset="0.2237" stop-color="#359B07"/>
<stop offset="0.9291" stop-color="#98ED18"/>
</linearGradient>
<linearGradient id="paint1_linear_4005_1796" x1="53.3085" y1="126.548" x2="96.6124" y2="60.8601" gradientUnits="userSpaceOnUse">
<stop offset="0.2237" stop-color="#359B07"/>
<stop offset="0.9291" stop-color="#98ED18"/>
</linearGradient>
</defs>
</svg>
